
<svg id="facebook-Layer_2" data-name="Layer 2" xmlns="http://www.w3.org/2000/svg" viewBox="0 0 384 383.82">
  <defs>
    <style>
      .cls-1 {
        fill: #fff;
      }
    </style>
  </defs>
  <g id="facebook-Layer_1-2" data-name="Layer 1">
    <path class="cls-1" d="m384,178.15v26.2c-1.23,8.23-1.99,16.56-3.77,24.66-14.52,66.36-53.32,112.89-115.59,139.99-6.2,2.7-12.72,4.66-19.46,7.1v-142.29h41.18c2.09-16.07,4.1-31.6,6.19-47.68h-47.18c0-12.98-.46-25.45.16-37.87.42-8.42,5.41-13.35,13.77-15.02,4.49-.9,9.17-1.01,13.77-1.13,6.84-.18,13.69-.05,20.68-.05v-43.52c-15.04-.19-29.86-.73-44.67-.43-9.99.2-19.41,3.4-27.85,8.84-17.09,11.02-24.34,27.6-25.42,47.1-.69,12.56-.23,25.19-.28,37.79,0,1.33,0,2.66,0,4.51h-41.03v47.62h40.71v149.84c-10.31-.8-20.33-1.05-30.18-2.42-31.72-4.43-60.7-16.01-86.4-35.13C37.83,315.92,12.46,275.76,3.05,225.74c-1.29-6.83-2.04-13.76-3.05-20.64,0-8.98,0-17.96,0-26.95.56-4.3,1.05-8.62,1.68-12.91,5.41-37.01,19.98-69.96,44.53-98.27C76.09,32.5,113.52,10.97,158.59,2.95,165.19,1.78,171.86.97,178.5,0c9,0,18,0,27,0,4.43.57,8.87,1.09,13.29,1.73,31.68,4.6,60.65,16.01,86.36,35.08,41.05,30.45,66.5,70.8,75.85,121.09,1.25,6.71,2.01,13.5,3,20.25Z"></path>
  </g>
</svg>