<svg id="instagram-Layer_2" data-name="Layer 2" xmlns="http://www.w3.org/2000/svg" viewBox="0 0 329.14 328.55">
  <defs>
    <style>
      .cls-1 {
        fill: #fff;
      }
    </style>
  </defs>
  <g id="instagram-Layer_1-2" data-name="Layer 1">
    <path class="cls-1" d="m329.14,73.78v180.93c-.23.79-.48,1.58-.7,2.37-2.07,7.36-3.13,15.2-6.36,22.01-15.31,32.29-41.14,49.12-77.05,49.31-53.75.29-107.5.03-161.25.1-16.36.02-31.53-3.95-45.31-12.78-19.81-12.69-31.98-30.71-37.01-53.59C.93,259.68.49,257.19,0,254.72c0-60.31,0-120.62,0-180.93.22-.58.56-1.14.63-1.73,1.53-12.14,5.5-23.41,12.16-33.69C25.55,18.63,43.57,6.48,66.49,1.46,68.96.92,71.45.49,73.93,0c60.43,0,120.86,0,181.29,0,.47.21.93.55,1.42.6,9.76,1.12,19.05,3.88,27.69,8.49,23.36,12.47,37.79,31.74,43.41,57.57.51,2.36.94,4.74,1.41,7.11Zm-164.68,158.77c37.66.2,68.2-30.15,68.55-68.13.34-37.49-30.01-67.99-68.18-68.49-37.58-.49-68.65,30.38-68.7,68.28-.05,37.71,30.37,68.13,68.33,68.34ZM253.65,54.9c-11.31.05-20.36,9.09-20.36,20.36,0,11.39,9.2,20.49,20.66,20.4,11.26-.09,20.3-9.29,20.18-20.53-.12-11.35-9.16-20.28-20.47-20.23Z"></path>
  </g>
</svg>