<svg id="snapchat-Layer_2" data-name="Layer 2" xmlns="http://www.w3.org/2000/svg" viewBox="0 0 409.6 384.69">
  <defs>
    <style>
      .cls-1 {
        fill: #fff;
      }
    </style>
  </defs>
  <g id="snapchat-Layer_1-2" data-name="Layer 1">
    <path class="cls-1" d="m0,298.59v-4.8c2.09-4.48,5.74-6.49,10.5-7.57,6.06-1.38,12.19-2.96,17.87-5.44,28.97-12.67,47.77-35.34,60.82-63.33,4.52-9.69,2.07-15.83-7.71-20.38-4.92-2.29-10.3-3.6-15.24-5.85-6.13-2.79-12.6-5.35-17.92-9.35-10.39-7.82-9.08-19.95,2.25-26.33,6.96-3.91,14.04-4.24,21.41-.83,6.08,2.82,12.45,4.69,19.33,3.5,2.21-.38,3.02-1.26,2.85-3.72-.78-11.16-1.79-22.35-1.79-33.52,0-12.49-.39-25.25,1.85-37.43,5.9-32.08,25-55.04,53.3-70.33C170.43.83,195.28-1.7,220.81.95c28.29,2.93,52.44,14.43,71.37,35.87,14.19,16.07,23.06,34.58,24.63,56.36,1.46,20.3-.13,40.49-1.41,60.69-.18,2.91.46,4.33,3.32,4.48,1.71.09,3.54.33,5.14-.11,4.47-1.23,8.93-2.59,13.26-4.24,7.3-2.77,14.23-2.27,21.17,1.26,11.96,6.09,13.72,18.52,3.01,26.6-5.31,4.01-11.77,6.57-17.9,9.37-5.42,2.48-11.33,3.94-16.63,6.63-8.53,4.32-10.66,10.23-6.65,18.84,3.42,7.33,7.2,14.59,11.72,21.28,16.42,24.32,37.6,42.31,67.22,48.31,4.79.97,8.42,3.04,10.53,7.51v5.6c-3.38,7.39-9.45,11.97-16.85,14.24-11.14,3.42-22.5,6.14-33.83,8.89-2.97.72-4.97,1.6-5.55,4.96-.68,3.91-1.9,7.73-2.88,11.6-2.14,8.51-6.42,11.33-15.11,10.23-8.57-1.08-17.13-2.43-25.74-2.86-9.58-.48-19.36-.2-27.93,4.86-9.49,5.61-18.69,11.74-27.89,17.82-25.48,16.85-52.75,20.33-80.92,8.87-11.53-4.69-21.53-13.05-32.48-19.31-7.1-4.06-14.31-8.91-22.07-10.56-9.31-1.97-19.27-1.26-28.93-1-5.66.15-11.26,1.99-16.94,2.51-7.54.69-11.45-2.42-13.24-9.69-.98-4-2.17-7.96-2.88-12.01-.63-3.58-2.63-4.77-6.02-5.45-9.1-1.85-18.27-3.64-27.11-6.41-9.64-3.01-19.34-6.58-23.24-17.49Z"></path>
  </g>
</svg>