<svg id="tiktok-Layer_2" data-name="Layer 2" xmlns="http://www.w3.org/2000/svg" viewBox="0 0 336.96 383.26">
  <defs>
    <style>
      .cls-1 {
        fill: #fff;
      }
    </style>
  </defs>
  <g id="tiktok-Layer_1-2" data-name="Layer 1">
    <path class="cls-1" d="m239.95,0c1.44,42.14,25.9,76.55,64.4,90.43,10.41,3.75,21.19,5.64,32.62,5.56v62.32c-35.59-.12-67.59-11.07-96.92-32.74,0,2.03,0,3.43,0,4.83.16,44.16.39,88.33.47,132.49.1,56.51-37.74,104.18-92.85,117.15-65.61,15.45-131.43-26.28-145.26-92.09-12.45-59.25,24.55-120.04,83.11-136.83,16.19-4.64,32.57-6.13,49.28-4.26,2,.22,3.79.28,3.77,3.31-.13,19.59-.07,39.17-.08,58.76,0,.48-.14.96-.18,1.17-6.53-.68-12.93-1.91-19.32-1.9-27.51.04-51.72,22.06-54.74,49.38-3.69,33.38,20.57,61.78,54.22,63.49,30.41,1.54,58.08-23.63,58.48-53.92.44-33.18.24-66.37.26-99.55.03-54.27,0-108.54.03-162.8,0-1.6.29-3.2.45-4.8,20.76,0,41.51,0,62.27,0Z"></path>
  </g>
</svg>