<svg id="youtube-Layer_2" data-name="Layer 2" xmlns="http://www.w3.org/2000/svg" viewBox="0 0 177.86 125.11">
  <defs>
    <style>
      .cls-1 {
        fill: #fff;
      }
    </style>
  </defs>
  <g id="youtube-Layer_1-2" data-name="Layer 1">
    <path class="cls-1" d="m88.38,0c17.05.59,34.09,1.09,51.13,1.82,5.23.23,10.47.86,15.64,1.71,11.12,1.84,17.78,8.53,19.78,19.61,2.82,15.64,3.24,31.45,2.76,47.27-.25,8.33-.96,16.65-1.7,24.95-.32,3.61-1,7.23-1.95,10.72-2.43,8.93-10.15,14.99-19.84,16.19-17.89,2.22-35.87,2.38-53.84,2.71-20.71.38-41.41-.13-62.08-1.33-5.35-.31-10.7-.96-16.01-1.76-10.42-1.56-17.52-8.19-19.35-18.66-1.33-7.58-2.29-15.29-2.57-22.97-.42-11.66-.47-23.36.01-35.02.33-8.11,1.39-16.24,2.89-24.22C5.1,11.1,13.14,4.46,23.22,3.19,40.73,1,58.34.81,75.94.5c4.14-.07,8.28-.01,12.42-.01,0-.16,0-.32.01-.49Zm-17.2,36.15v53.16c15.43-8.89,30.67-17.67,46.15-26.58-15.52-8.94-30.74-17.7-46.15-26.58Z"></path>
  </g>
</svg>